HIERARCHY
ROOT Hips
{
 OFFSET 0.000000 0.000000 0.000000
 CHANNELS 6 Xposition Yposition Zposition Yrotation Xrotation Zrotation
 JOINT Chest
 {
  OFFSET 0.000000 9.585900 0.002600
  CHANNELS 3 Yrotation Xrotation Zrotation
  JOINT Chest2
  {
   OFFSET 0.000000 9.601200 -0.005300
   CHANNELS 3 Yrotation Xrotation Zrotation
   JOINT Chest3
   {
    OFFSET 0.000000 9.561800 0.000000
    CHANNELS 3 Yrotation Xrotation Zrotation
    JOINT Chest4
    {
     OFFSET 0.000000 9.552100 0.000000
     CHANNELS 3 Yrotation Xrotation Zrotation
     JOINT Neck
     {
      OFFSET 0.000000 14.453000 0.000000
      CHANNELS 3 Yrotation Xrotation Zrotation
      JOINT Head
      {
       OFFSET 0.000000 8.936500 -0.011300
       CHANNELS 3 Yrotation Xrotation Zrotation
       End Site
       {
        OFFSET 0.000000 17.073600 -0.006000
       }
      }
     }
     JOINT RightCollar
     {
      OFFSET -2.921100 9.558500 0.000000
      CHANNELS 3 Yrotation Xrotation Zrotation
      JOINT RightShoulder
      {
       OFFSET -13.519700 0.000000 0.000000
       CHANNELS 3 Yrotation Xrotation Zrotation
       JOINT RightElbow
       {
        OFFSET 0.000000 -29.696600 0.000000
        CHANNELS 3 Yrotation Xrotation Zrotation
        JOINT RightWrist
        {
         OFFSET 0.000000 -24.004700 0.000000
         CHANNELS 3 Yrotation Xrotation Zrotation
         End Site
         {
          OFFSET 0.000000 -17.728500 0.000000
         }
        }
       }
      }
     }
     JOINT LeftCollar
     {
      OFFSET 2.921100 9.558500 0.000000
      CHANNELS 3 Yrotation Xrotation Zrotation
      JOINT LeftShoulder
      {
       OFFSET 13.519700 0.000000 0.000000
       CHANNELS 3 Yrotation Xrotation Zrotation
       JOINT LeftElbow
       {
        OFFSET 0.000000 -29.696600 0.000000
        CHANNELS 3 Yrotation Xrotation Zrotation
        JOINT LeftWrist
        {
         OFFSET 0.000000 -24.004700 0.000000
         CHANNELS 3 Yrotation Xrotation Zrotation
         End Site
         {
          OFFSET 0.000000 -17.728500 0.000000
         }
        }
       }
      }
     }
    }
   }
  }
 }
 JOINT RightHip
 {
  OFFSET -7.771700 -0.012900 -0.001300
  CHANNELS 3 Yrotation Xrotation Zrotation
  JOINT RightKnee
  {
   OFFSET 0.000000 -40.869800 0.001200
   CHANNELS 3 Yrotation Xrotation Zrotation
   JOINT RightAnkle
   {
    OFFSET 0.000000 -39.717900 0.002100
    CHANNELS 3 Yrotation Xrotation Zrotation
    JOINT RightToe
    {
     OFFSET 0.000000 -4.965400 11.033500
     CHANNELS 3 Yrotation Xrotation Zrotation
     End Site
     {
      OFFSET 0.000000 -1.423100 5.872300
     }
    }
   }
  }
 }
 JOINT LeftHip
 {
  OFFSET 7.771700 -0.012900 -0.001300
  CHANNELS 3 Yrotation Xrotation Zrotation
  JOINT LeftKnee
  {
   OFFSET 0.000000 -40.869800 0.001200
   CHANNELS 3 Yrotation Xrotation Zrotation
   JOINT LeftAnkle
   {
    OFFSET 0.000000 -39.717900 0.002100
    CHANNELS 3 Yrotation Xrotation Zrotation
    JOINT LeftToe
    {
     OFFSET 0.000000 -4.965400 11.033500
     CHANNELS 3 Yrotation Xrotation Zrotation
     End Site
     {
      OFFSET 0.000000 -1.423100 5.872300
     }
    }
   }
  }
 }
}
MOTION
Frames: 15
Frame Time: 0.008333
0.000000 85.388000 0.000000 0.000000 -5.767877 0.000000 0.000000 11.653817 0.000000 0.000000 -5.885947 0.000000 0.000000 -0.000000 0.000000 0.000000 -0.000000 0.000000 0.000000 12.528835 0.000000 0.000000 0.711642 0.000000 0.000000 -0.000000 0.000000 0.000000 0.000000 -90.000000 0.000000 -2.309062 0.000000 0.000000 2.309062 0.000000 0.000000 -0.000000 0.000000 0.000000 -0.000000 90.000000 0.000000 -2.309062 0.000000 0.000000 2.309062 0.000000 0.000000 8.520406 0.000000 0.000000 1.905762 0.000000 -0.000000 -4.658285 0.000000 0.000000 -0.000000 0.000000 0.000000 8.520406 0.000000 0.000000 1.905762 0.000000 -0.000000 -4.658285 0.000000 0.000000 -0.000000 0.000000
-43.833586 62.047239 13.193401 177.966056 -51.538631 -0.378365 5.069128 27.370804 0.174355 0.800687 4.756040 -0.041019 1.267007 7.517789 -0.034420 3.816473 22.033116 0.417639 -3.343830 18.254081 -3.112671 -5.132554 -1.933843 -4.632845 6.469285 7.995733 6.992737 -6.197059 -20.940472 -12.037818 -165.111774 -50.927793 -175.651483 21.513126 -5.958851 -36.440718 -10.958334 6.247446 -1.267018 -1.436031 -18.154271 20.454254 -169.564797 -56.892058 168.069538 0.887460 -18.297705 27.639675 2.764239 -15.434070 -7.466742 -0.832901 61.804725 -4.975673 1.562809 -9.162358 10.411322 0.185810 -0.473713 0.069064 -3.901980 -12.633814 0.895711 26.098419 76.372679 26.639042 0.499399 -11.617727 -3.744925 0.191866 0.678241 0.089088
-43.833010 62.047874 13.194018 177.971022 -51.574606 -0.372457 5.038543 27.345520 0.176996 0.794705 4.758781 -0.039756 1.271792 7.546833 -0.042357 3.800911 22.034559 0.418195 -3.302655 18.256515 -3.047243 -5.078164 -1.928050 -4.526078 6.470513 7.950478 6.987687 -5.962173 -20.746648 -12.111652 -164.660298 -51.140490 -175.861921 21.464499 -5.959126 -36.390296 -10.932640 6.207434 -1.265682 -1.538715 -17.956451 20.436547 -170.289619 -57.221398 168.271975 1.004580 -18.348301 27.678517 2.752761 -15.400596 -7.480800 -0.847459 61.806708 -4.984939 1.583825 -9.163611 10.407530 0.183449 -0.475763 0.066066 -3.903771 -12.598228 0.886015 26.082144 76.371028 26.621468 0.497899 -11.611714 -3.748103 0.195871 0.674504 0.091696
-43.831020 62.048083 13.195226 177.969433 -51.612331 -0.366815 5.035292 27.374340 0.176830 0.793960 4.759152 -0.039599 1.239619 7.485363 -0.017153 3.801638 22.072973 0.405664 -3.260605 18.261648 -2.977778 -5.023442 -1.917149 -4.412184 6.465637 7.914835 6.983567 -5.730151 -20.550252 -12.188732 -164.206186 -51.356560 -176.071992 21.419404 -5.958423 -36.337496 -10.904361 6.164244 -1.261870 -1.652427 -17.758635 20.422855 -171.041594 -57.590260 168.483673 1.117155 -18.384468 27.717826 2.732730 -15.366131 -7.491649 -0.829174 61.804905 -4.964713 1.600640 -9.165693 10.396227 0.181734 -0.472630 0.061561 -3.902590 -12.560481 0.882039 26.065713 76.370721 26.604215 0.499154 -11.608854 -3.749047 0.195061 0.672182 0.090943
-43.828905 62.048306 13.196571 177.969399 -51.653780 -0.360285 5.018296 27.377269 0.179795 0.791213 4.760213 -0.038880 1.238932 7.486617 -0.016577 3.799968 22.093558 0.399859 -3.221729 18.251996 -2.889174 -4.970478 -1.902060 -4.290585 6.438923 7.809015 7.011636 -5.484609 -20.296324 -12.298163 -163.773449 -51.574935 -176.267983 21.379389 -5.956513 -36.282931 -10.882828 6.104405 -1.237762 -1.779019 -17.564946 20.415014 -171.826478 -57.999222 168.713610 1.218387 -18.394747 27.764241 2.724623 -15.325837 -7.496979 -0.815489 61.804062 -4.954849 1.605377 -9.167999 10.395515 0.179060 -0.472457 0.061431 -3.905258 -12.519392 0.875457 26.051278 76.370537 26.586857 0.502551 -11.605544 -3.749904 0.193018 0.668874 0.089252
-43.826022 62.048319 13.198210 177.973315 -51.695857 -0.359112 4.992802 27.340419 0.192626 0.789297 4.772139 -0.040208 1.249695 7.536038 -0.031279 3.796016 22.094822 0.402580 -3.181811 18.243887 -2.795682 -4.919341 -1.883137 -4.160534 6.425694 7.738673 7.029586 -5.256908 -20.072626 -12.390234 -163.373332 -51.795044 -176.441987 21.343216 -5.952831 -36.226559 -10.869796 6.081939 -1.233085 -1.922481 -17.413049 20.440128 -172.641645 -58.443523 168.967324 1.304312 -18.377835 27.821870 2.718576 -15.285569 -7.501314 -0.819628 61.804667 -4.952142 1.606475 -9.166546 10.391351 0.187527 -0.474727 0.061844 -3.907658 -12.478073 0.870334 26.040979 76.369221 26.580334 0.498984 -11.601718 -3.755272 0.199255 0.665901 0.090204
-43.822595 62.048839 13.199534 177.967561 -51.743020 -0.351800 4.989593 27.346907 0.206111 0.792039 4.803425 -0.052021 1.245447 7.527164 -0.026993 3.780985 22.078845 0.414421 -3.131540 18.253514 -2.712524 -4.870810 -1.861657 -4.022437 6.425994 7.710037 7.030748 -5.031803 -19.867787 -12.473552 -163.007001 -52.017240 -176.597705 21.314818 -5.945489 -36.169382 -10.847053 6.074068 -1.244906 -2.093639 -17.260583 20.481791 -173.475929 -58.914730 169.249286 1.378343 -18.335544 27.890414 2.718376 -15.240111 -7.502790 -0.831036 61.803558 -4.957442 1.609038 -9.162382 10.392182 0.186839 -0.477676 0.057573 -3.902622 -12.430026 0.866204 26.036690 76.369562 26.576858 0.505434 -11.604534 -3.753985 0.195730 0.666603 0.086700
-43.819798 62.049185 13.201029 177.964758 -51.789390 -0.342197 4.986862 27.362484 0.214512 0.785112 4.794914 -0.048938 1.243374 7.528371 -0.024825 3.774298 22.045806 0.449379 -3.095514 18.299819 -2.657974 -4.824521 -1.840273 -3.878986 6.410748 7.727544 7.006629 -4.800099 -19.665842 -12.557363 -162.676283 -52.240524 -176.738560 21.297952 -5.933042 -36.108622 -10.802961 6.021844 -1.239537 -2.314332 -17.026616 20.486704 -174.322658 -59.400455 169.565392 1.439742 -18.268446 27.968054 2.712532 -15.195028 -7.509194 -0.831431 61.801544 -4.957220 1.614642 -9.160553 10.391239 0.180053 -0.478141 0.055396 -3.899303 -12.384094 0.857483 26.033218 76.368677 26.572357 0.512631 -11.601799 -3.751065 0.190614 0.664550 0.082607
-43.816128 62.050169 13.202153 177.958489 -51.840766 -0.335142 4.991933 27.403250 0.221866 0.781152 4.723315 -0.010376 1.239869 7.574379 -0.044957 3.768507 22.066078 0.443418 -3.046128 18.289772 -2.551890 -4.778708 -1.820187 -3.731458 6.390470 7.688228 7.016330 -4.572915 -19.465366 -12.637311 -162.378577 -52.459590 -176.858428 21.288210 -5.913781 -36.043189 -10.781383 5.966223 -1.207382 -2.549649 -16.829654 20.537909 -175.175213 -59.885114 169.916553 1.486735 -18.176930 28.052872 2.700650 -15.145029 -7.506559 -0.822933 61.798692 -4.956584 1.621050 -9.159368 10.387723 0.174401 -0.477809 0.057291 -3.899797 -12.331703 0.857625 26.032667 76.368820 26.566786 0.511244 -11.600683 -3.752377 0.190573 0.662494 0.082293
-43.812980 62.050676 13.203806 177.952945 -51.888541 -0.326925 4.990896 27.409279 0.241664 0.782593 4.722260 -0.008697 1.236294 7.578145 -0.041117 3.762909 22.088076 0.435328 -2.993738 18.275629 -2.441791 -4.731642 -1.803552 -3.578829 6.363802 7.651193 7.024857 -4.347346 -19.261948 -12.715645 -162.125316 -52.669320 -176.945392 21.279797 -5.888625 -35.977472 -10.779874 5.944906 -1.199614 -2.791379 -16.664068 20.635808 -176.010584 -60.358438 170.282435 1.530570 -18.070436 28.141819 2.700567 -15.099537 -7.508740 -0.836003 61.798193 -4.964389 1.625664 -9.152852 10.386556 0.172095 -0.479800 0.061115 -3.895707 -12.283423 0.851907 26.043253 76.366318 26.579063 0.511507 -11.599960 -3.755879 0.187455 0.662124 0.081800
-43.810740 62.048719 13.207645 177.951446 -51.917567 -0.319307 4.989228 27.393427 0.256689 0.781237 4.746070 -0.016286 1.237811 7.513744 0.000857 3.749139 22.133430 0.420430 -2.949668 18.281097 -2.346217 -4.681199 -1.793812 -3.421409 6.324809 7.642174 7.018948 -4.115623 -19.054357 -12.795817 -161.930244 -52.867925 -176.994090 21.272368 -5.862632 -35.918537 -10.791210 5.970699 -1.231349 -3.039954 -16.519025 20.769352 -176.797343 -60.812134 170.630783 1.588913 -17.973987 28.226902 2.699429 -15.075150 -7.517048 -0.847614 61.798616 -4.967181 1.630212 -9.147334 10.384378 0.176738 -0.479010 0.060957 -3.893691 -12.254860 0.844715 26.050920 76.358453 26.589107 0.509213 -11.600577 -3.762028 0.186927 0.668694 0.084039
-43.809281 62.047158 13.211562 177.940537 -51.949657 -0.302854 4.992139 27.341909 0.294027 0.777900 4.809605 -0.046609 1.237919 7.493651 0.015128 3.746308 22.133261 0.434752 -2.905762 18.282531 -2.252802 -4.626383 -1.792048 -3.260279 6.281145 7.635111 7.007086 -3.888024 -18.846244 -12.873464 -161.773538 -53.052264 -177.013553 21.267247 -5.841435 -35.870943 -10.806274 5.965105 -1.250444 -3.272646 -16.332961 20.888231 -177.522927 -61.232972 170.943057 1.663082 -17.903357 28.304315 2.699815 -15.047520 -7.521914 -0.856576 61.797145 -4.977690 1.626723 -9.143141 10.393092 0.188219 -0.475955 0.051115 -3.884129 -12.221224 0.834252 26.059011 76.349540 26.599143 0.510680 -11.606760 -3.763989 0.185725 0.679228 0.083138
-43.808157 62.051709 13.211285 177.945328 -52.027628 -0.299558 4.986660 27.377201 0.309017 0.778937 4.779804 -0.024950 1.231720 7.526886 0.001860 3.745789 22.133134 0.448524 -2.859965 18.281306 -2.154689 -4.568638 -1.797449 -3.097252 6.234070 7.630290 6.997601 -3.673862 -18.641273 -12.947366 -161.624205 -53.218840 -177.022325 21.264085 -5.826572 -35.828298 -10.829604 5.956623 -1.274954 -3.486322 -16.131113 21.012245 -178.201267 -61.611238 171.222794 1.733402 -17.851168 28.382045 2.689112 -14.966322 -7.524831 -0.866030 61.791861 -4.988926 1.635307 -9.136706 10.392371 0.181909 -0.480248 0.053262 -3.884430 -12.140436 0.821354 26.065327 76.344417 26.605090 0.514399 -11.597667 -3.763152 0.181572 0.670584 0.080660
-43.807921 62.051301 13.215534 177.948053 -52.067700 -0.294021 4.976225 27.374625 0.314429 0.777172 4.771024 -0.017170 1.230676 7.540171 0.002778 3.745092 22.097734 0.499069 -2.823971 18.310447 -2.095076 -4.508348 -1.809970 -2.933561 6.203489 7.689350 6.945373 -3.496419 -18.463709 -13.005279 -161.462537 -53.365160 -177.037698 21.263716 -5.816247 -35.781772 -10.866400 5.970768 -1.346297 -3.684841 -15.914692 21.134967 -178.842158 -61.945144 171.481304 1.784175 -17.804832 28.458978 2.684717 -14.927488 -7.534694 -0.872505 61.786367 -4.989046 1.643340 -9.131399 10.388605 0.176935 -0.479229 0.055219 -3.884061 -12.099987 0.810014 26.081581 76.328961 26.625409 0.502445 -11.589345 -3.768085 0.186651 0.672759 0.081669
-43.807195 62.051414 13.220144 177.947406 -52.111107 -0.292254 4.968433 27.377776 0.325838 0.778326 4.781279 -0.018131 1.226298 7.535883 0.011051 3.739161 22.102568 0.511672 -2.770367 18.297716 -1.996042 -4.442024 -1.831864 -2.768824 6.185032 7.701164 6.923212 -3.334921 -18.288543 -13.061387 -161.279083 -53.490426 -177.067710 21.268629 -5.811567 -35.730801 -10.927412 5.898073 -1.371056 -3.856419 -15.636875 21.245430 -179.441214 -62.236569 171.729231 1.811101 -17.753971 28.528400 2.682342 -14.883777 -7.536621 -0.876180 61.777697 -4.988580 1.653307 -9.126108 10.390869 0.178499 -0.479484 0.059162 -3.883718 -12.056414 0.805746 26.086083 76.319625 26.632406 0.496917 -11.583567 -3.771578 0.189209 0.674033 0.082128
